HIERARCHY
ROOT Hips
{
	OFFSET 0.000000 0.000000 0.000000
	CHANNELS 6 Xposition Yposition Zposition Zrotation Yrotation Xrotation 
	JOINT LHipJoint
	{
		OFFSET 0.000000 0.000000 0.000000
		CHANNELS 3 Zrotation Yrotation Xrotation
		JOINT LeftUpLeg
		{
			OFFSET 1.363060 -1.794630 0.839290
			CHANNELS 3 Zrotation Yrotation Xrotation
			JOINT LeftLeg
			{
				OFFSET 2.448110 -6.726130 0.000000
				CHANNELS 3 Zrotation Yrotation Xrotation
				JOINT LeftFoot
				{
					OFFSET 2.562200 -7.039590 0.000000
					CHANNELS 3 Zrotation Yrotation Xrotation
					JOINT LeftToeBase
					{
						OFFSET 0.157640 -0.433110 2.322550
						CHANNELS 3 Zrotation Yrotation Xrotation
						End Site
						{
							OFFSET 0.000000 0.000000 0.000000
						}
					}
				}
			}
		}
	}
	JOINT RHipJoint
	{
		OFFSET 0.000000 0.000000 0.000000
		CHANNELS 3 Zrotation Yrotation Xrotation
		JOINT RightUpLeg
		{
			OFFSET -1.305520 -1.794630 0.839290
			CHANNELS 3 Zrotation Yrotation Xrotation
			JOINT RightLeg
			{
				OFFSET -2.542530 -6.985550 0.000000
				CHANNELS 3 Zrotation Yrotation Xrotation
				JOINT RightFoot
				{
					OFFSET -2.568260 -7.056230 0.000000
					CHANNELS 3 Zrotation Yrotation Xrotation
					JOINT RightToeBase
					{
						OFFSET -0.164730 -0.452590 2.363150
						CHANNELS 3 Zrotation Yrotation Xrotation
						End Site
						{
							OFFSET 0.000000 0.000000 0.000000
						}
					}
				}
			}
		}
	}
	JOINT LowerBack
	{
		OFFSET 0.000000 0.000000 0.000000
		CHANNELS 3 Zrotation Yrotation Xrotation
		JOINT Spine
		{
			OFFSET 0.028270 2.035590 -0.193380
			CHANNELS 3 Zrotation Yrotation Xrotation
			JOINT Spine1
			{
				OFFSET 0.056720 2.048850 -0.042750
				CHANNELS 3 Zrotation Yrotation Xrotation
				JOINT Neck
				{
					OFFSET 0.000000 0.000000 0.000000
					CHANNELS 3 Zrotation Yrotation Xrotation
					JOINT Neck1
					{
						OFFSET -0.054170 1.746240 0.172020
						CHANNELS 3 Zrotation Yrotation Xrotation
						JOINT Head
						{
							OFFSET 0.104070 1.761360 -0.123970
							CHANNELS 3 Zrotation Yrotation Xrotation
							End Site
							{
								OFFSET 0.000000 0.000000 0.000000
							}
						}
					}
				}
				JOINT LeftShoulder
				{
					OFFSET 0.000000 0.000000 0.000000
					CHANNELS 3 Zrotation Yrotation Xrotation
					JOINT LeftArm
					{
						OFFSET 3.362410 1.200890 -0.311210
						CHANNELS 3 Zrotation Yrotation Xrotation
						JOINT LeftForeArm
						{
							OFFSET 4.983000 -0.000000 -0.000000
							CHANNELS 3 Zrotation Yrotation Xrotation
							JOINT LeftHand
							{
								OFFSET 3.483560 -0.000000 -0.000000
								CHANNELS 3 Zrotation Yrotation Xrotation
								JOINT LeftFingerBase
								{
									OFFSET 0.000000 0.000000 0.000000
									CHANNELS 3 Zrotation Yrotation Xrotation
									JOINT LeftHandIndex1
									{
										OFFSET 0.715260 -0.000000 -0.000000
										CHANNELS 3 Zrotation Yrotation Xrotation
										End Site
										{
											OFFSET 0.000000 0.000000 0.000000
										}
									}
								}
								JOINT LThumb
								{
									OFFSET 0.000000 0.000000 0.000000
									CHANNELS 3 Zrotation Yrotation Xrotation
									End Site
									{
										OFFSET 0.000000 0.000000 0.000000
									}
								}
							}
						}
					}
				}
				JOINT RightShoulder
				{
					OFFSET 0.000000 0.000000 0.000000
					CHANNELS 3 Zrotation Yrotation Xrotation
					JOINT RightArm
					{
						OFFSET -3.136600 1.374050 -0.404650
						CHANNELS 3 Zrotation Yrotation Xrotation
						JOINT RightForeArm
						{
							OFFSET -5.241900 -0.000000 -0.000000
							CHANNELS 3 Zrotation Yrotation Xrotation
							JOINT RightHand
							{
								OFFSET -3.444170 -0.000000 -0.000000
								CHANNELS 3 Zrotation Yrotation Xrotation
								JOINT RightFingerBase
								{
									OFFSET 0.000000 0.000000 0.000000
									CHANNELS 3 Zrotation Yrotation Xrotation
									JOINT RightHandIndex1
									{
										OFFSET -0.622530 -0.000000 -0.000000
										CHANNELS 3 Zrotation Yrotation Xrotation
										End Site
										{
											OFFSET 0.000000 0.000000 0.000000
										}
									}
								}
								JOINT RThumb
								{
									OFFSET 0.000000 0.000000 0.000000
									CHANNELS 3 Zrotation Yrotation Xrotation
									End Site
									{
										OFFSET 0.000000 0.000000 0.000000
									}
								}
							}
						}
					}
				}
			}
		}
	}
}
MOTION
Frames: 12
Frame Time: 0.008333
8.330202 16.581537 -7.611335 -135.212033 -87.544906 129.829545 -1.000966 -2.242424 -0.597628 -5.606662 12.306369 -28.856822 9.704752 17.591613 55.908376 -3.993601 12.242554 -5.830218 0.397200 -4.046700 -11.208000 1.548014 2.720786 -0.491032 11.907488 -11.841460 -30.138453 -10.769358 -18.702829 61.024582 0.595618 -5.647586 -8.857380 -0.346400 3.781500 -10.462800 3.176411 -0.705121 17.587871 1.076413 -0.248305 -2.538019 -2.372985 -0.331587 -2.187271 -0.065889 1.415840 -13.341563 5.323291 1.336601 11.430432 -0.807200 1.142600 8.865200 -2.147120 -13.253255 0.580256 -41.103793 -43.463616 28.126360 44.602032 -35.371641 -26.639703 -0.293213 -4.467364 5.667196 0.815317 14.384097 0.219000 -7.125000 0.000000 0.000000 -25.978400 47.030200 -1.392800 4.967088 14.020244 0.087608 33.117820 48.432403 29.360109 -36.128944 29.532511 -16.126335 -0.205882 0.868246 15.626383 -8.489376 -1.517554 0.326600 7.125000 0.000000 0.000000 14.825900 -32.065500 4.835200 
8.325330 16.579724 -7.603063 -135.120987 -87.512614 129.703506 -1.006526 -2.238632 -0.589974 -5.592746 12.248911 -28.791621 9.709871 17.599185 55.947958 -3.975613 12.215762 -5.933874 0.388300 -4.001600 -11.081200 1.553065 2.717773 -0.484628 11.896447 -11.808854 -30.086780 -10.767937 -18.703134 61.026724 0.621263 -5.702186 -8.869461 -0.353400 3.819300 -10.568800 3.201971 -0.706652 17.612826 1.076578 -0.244381 -2.540941 -2.391623 -0.329548 -2.205386 -0.042409 1.417713 -13.335531 5.323702 1.331008 11.442218 -0.812900 1.142500 8.881600 -2.149004 -13.238208 0.589230 -41.189671 -43.427420 28.164385 44.652815 -35.408009 -26.684441 -0.290461 -4.428916 5.677554 0.950041 14.228341 0.260200 -7.125000 0.000000 0.000000 -25.767900 46.873400 -1.273800 4.970341 14.006672 0.089535 33.167118 48.395564 29.409236 -36.207356 29.601009 -16.194006 -0.202898 0.858987 15.577938 -8.557583 -1.498595 0.325900 7.125000 0.000000 0.000000 14.763200 -32.041800 4.822200 
8.321364 16.579838 -7.593658 -135.397956 -87.518835 129.969997 -1.013714 -2.244322 -0.583492 -5.632542 12.190380 -28.762190 9.709270 17.604562 55.971981 -3.997709 12.270028 -6.023976 0.387700 -3.998300 -11.072000 1.554298 2.712404 -0.480812 11.845842 -11.798237 -30.061383 -10.771366 -18.702214 61.028843 0.644190 -5.748786 -8.863221 -0.361300 3.861200 -10.686600 3.191085 -0.707071 17.624966 1.075811 -0.245873 -2.545771 -2.393314 -0.329156 -2.227779 -0.043477 1.406010 -13.334335 5.321911 1.314083 11.442733 -0.816100 1.134500 8.890100 -2.151126 -13.226256 0.597820 -41.277128 -43.401379 28.228520 44.711729 -35.444806 -26.732219 -0.296085 -4.399445 5.664851 1.086750 14.145598 0.305400 -7.125000 0.000000 0.000000 -25.586900 46.792300 -1.209200 4.970648 13.996856 0.087699 33.198574 48.347473 29.440924 -36.291790 29.675283 -16.269135 -0.198817 0.861471 15.494790 -8.586769 -1.502596 0.328400 7.125000 0.000000 0.000000 14.738300 -32.050900 4.810300 
8.317058 16.578364 -7.587086 -136.065829 -87.520015 130.620107 -1.017903 -2.248292 -0.576613 -5.675683 12.166687 -28.734058 9.711655 17.608165 55.998335 -4.026035 12.336361 -6.101881 0.390700 -4.013500 -11.114700 1.555029 2.704179 -0.477938 11.791342 -11.789227 -30.034304 -10.777319 -18.703790 61.036175 0.633592 -5.725895 -8.849706 -0.360100 3.855000 -10.669000 3.140949 -0.700828 17.637359 1.075159 -0.245351 -2.548569 -2.369511 -0.329184 -2.234045 -0.055529 1.390243 -13.351191 5.325655 1.295808 11.431390 -0.813900 1.125100 8.890300 -2.154316 -13.209132 0.606705 -41.356038 -43.357792 28.279517 44.788768 -35.498441 -26.807220 -0.294886 -4.375163 5.631527 1.188293 14.061142 0.337200 -7.125000 0.000000 0.000000 -25.443900 46.708300 -1.145300 4.969749 13.979695 0.090394 33.256663 48.319354 29.452644 -36.388796 29.750790 -16.354254 -0.199097 0.881478 15.464841 -8.530382 -1.535697 0.333400 7.125000 0.000000 0.000000 14.795200 -32.100400 4.811700 
8.312978 16.577685 -7.580060 -136.420960 -87.509275 130.963568 -1.022207 -2.250801 -0.570922 -5.699063 12.135519 -28.705827 9.713628 17.611730 56.020838 -4.044747 12.382300 -6.174469 0.390900 -4.014900 -11.118500 1.556686 2.699448 -0.474841 11.757643 -11.771919 -30.008852 -10.779986 -18.704611 61.040396 0.640263 -5.739373 -8.845999 -0.362400 3.867100 -10.703100 3.115751 -0.697533 17.647111 1.075306 -0.244224 -2.551588 -2.355024 -0.328963 -2.244093 -0.060225 1.376240 -13.360448 5.326456 1.277868 11.421267 -0.815700 1.116100 8.889400 -2.156200 -13.194599 0.615538 -41.431031 -43.316896 28.323715 44.859151 -35.547706 -26.877198 -0.292226 -4.355158 5.607009 1.264496 13.988221 0.360000 -7.125000 0.000000 0.000000 -25.332900 46.634500 -1.090600 4.969730 13.965015 0.091002 33.302975 48.290894 29.466606 -36.480256 29.822102 -16.434418 -0.201557 0.898049 15.420832 -8.483180 -1.550823 0.335500 7.125000 0.000000 0.000000 14.842200 -32.128700 4.817400 
8.309012 16.577118 -7.573714 -136.792310 -87.496648 131.326867 -1.025495 -2.253567 -0.566326 -5.721160 12.112275 -28.684975 9.716096 17.614722 56.041431 -4.065162 12.430987 -6.239244 0.392100 -4.020800 -11.135200 1.558015 2.695330 -0.472483 11.727964 -11.754721 -29.988486 -10.782255 -18.705637 61.043680 0.644360 -5.747356 -8.841674 -0.363700 3.874300 -10.723200 3.084348 -0.693524 17.652648 1.075795 -0.243343 -2.554119 -2.334265 -0.329177 -2.250508 -0.067933 1.359133 -13.372050 5.327005 1.257241 11.403965 -0.818000 1.105500 8.881500 -2.157632 -13.180508 0.624429 -41.497558 -43.272625 28.360433 44.935946 -35.602153 -26.958396 -0.286893 -4.343372 5.579253 1.301261 13.941425 0.369900 -7.125000 0.000000 0.000000 -25.275200 46.585800 -1.055500 4.969180 13.950006 0.090791 33.345656 48.267216 29.469604 -36.574465 29.893143 -16.517283 -0.207521 0.921763 15.384958 -8.398923 -1.568633 0.337000 7.125000 0.000000 0.000000 14.924000 -32.164100 4.832500 
8.305273 16.576665 -7.567709 -137.167690 -87.484119 131.699158 -1.028247 -2.256632 -0.562509 -5.743858 12.093209 -28.668721 9.718428 17.617402 56.060782 -4.084686 12.477761 -6.301194 0.393100 -4.026100 -11.150000 1.559163 2.691560 -0.470799 11.699678 -11.740776 -29.972465 -10.783303 -18.706004 61.042969 0.645799 -5.749317 -8.832178 -0.364600 3.879000 -10.736500 3.048467 -0.689464 17.655054 1.076392 -0.243558 -2.556139 -2.310954 -0.329830 -2.254168 -0.075510 1.340324 -13.384957 5.327583 1.234624 11.379908 -0.820900 1.093700 8.866600 -2.158768 -13.167151 0.633183 -41.554245 -43.226156 28.388576 45.017702 -35.660035 -27.048479 -0.278526 -4.338356 5.553996 1.301213 13.912832 0.367300 -7.125000 0.000000 0.000000 -25.264800 46.554100 -1.034000 4.968016 13.935285 0.089917 33.383498 48.247964 29.460947 -36.670430 29.963224 -16.602307 -0.218203 0.951546 15.366055 -8.278732 -1.583174 0.336700 7.125000 0.000000 0.000000 15.039100 -32.199100 4.858900 
8.301873 16.576551 -7.561816 -137.489500 -87.472959 132.023963 -1.030489 -2.260383 -0.559778 -5.767042 12.074278 -28.659699 9.720549 17.620097 56.079107 -4.102843 12.521263 -6.360633 0.393700 -4.028700 -11.157400 1.559471 2.688623 -0.470005 11.674089 -11.731892 -29.964516 -10.784388 -18.706048 61.041441 0.645517 -5.747329 -8.820491 -0.365600 3.883900 -10.750300 3.011449 -0.686489 17.655371 1.077183 -0.245669 -2.558025 -2.286511 -0.331298 -2.258584 -0.082850 1.321289 -13.395210 5.329028 1.212051 11.347921 -0.823700 1.081700 8.842700 -2.159817 -13.155474 0.642103 -41.600894 -43.178424 28.410224 45.103044 -35.719802 -27.144989 -0.268133 -4.338733 5.537000 1.271915 13.900117 0.355000 -7.125000 0.000000 0.000000 -25.292400 46.537100 -1.024000 4.966342 13.921659 0.087998 33.413193 48.229059 29.442793 -36.768941 30.034243 -16.690558 -0.232201 0.986060 15.365148 -8.132241 -1.596985 0.335100 7.125000 0.000000 0.000000 15.179200 -32.235700 4.893200 
8.298927 16.576211 -7.556037 -137.711715 -87.464030 132.254249 -1.032190 -2.264626 -0.558111 -5.790102 12.052895 -28.657160 9.722908 17.623461 56.098344 -4.118329 12.559069 -6.418417 0.393100 -4.025900 -11.149700 1.558629 2.686275 -0.469795 11.651414 -11.731555 -29.964531 -10.786242 -18.705854 61.040842 0.641321 -5.736984 -8.806952 -0.366500 3.888700 -10.763700 2.976241 -0.685767 17.655626 1.078144 -0.250425 -2.559941 -2.263420 -0.333934 -2.265131 -0.087071 1.302931 -13.402516 5.330840 1.189638 11.308508 -0.827200 1.069800 8.810500 -2.160761 -13.145392 0.651164 -41.638608 -43.129009 28.428044 45.192291 -35.781280 -27.246885 -0.257322 -4.341332 5.531016 1.231706 13.895770 0.339100 -7.125000 0.000000 0.000000 -25.335600 46.527900 -1.019900 4.964455 13.909287 0.085517 33.436323 48.210173 29.417553 -36.869574 30.105876 -16.781543 -0.248954 1.023164 15.388015 -7.968767 -1.608464 0.332300 7.125000 0.000000 0.000000 15.335300 -32.270600 4.933400 
8.296548 16.575645 -7.550145 -137.807719 -87.458822 132.363602 -1.033472 -2.269577 -0.557398 -5.813090 12.025341 -28.661751 9.725767 17.627847 56.120328 -4.129328 12.587410 -6.476140 0.391000 -4.015400 -11.120000 1.556159 2.684653 -0.470150 11.631739 -11.740934 -29.974962 -10.789378 -18.705255 61.042606 0.634439 -5.720695 -8.790335 -0.367600 3.894400 -10.779700 2.943025 -0.687681 17.658487 1.079466 -0.258386 -2.562437 -2.240689 -0.337883 -2.278053 -0.089332 1.285558 -13.403621 5.333348 1.167863 11.262135 -0.831100 1.058000 8.770300 -2.161772 -13.137242 0.660877 -41.671903 -43.077615 28.444914 45.284898 -35.843611 -27.352211 -0.246895 -4.343672 5.537506 1.192221 13.892076 0.323200 -7.125000 0.000000 0.000000 -25.379000 46.519400 -1.016200 4.962778 13.898420 0.082653 33.453525 48.187865 29.388060 -36.972269 30.179082 -16.875478 -0.266816 1.060235 15.434028 -7.803066 -1.618133 0.328700 7.125000 0.000000 0.000000 15.494000 -32.303000 4.975300 
8.294735 16.574738 -7.544139 -137.718184 -87.454425 132.291290 -1.034219 -2.274542 -0.557779 -5.831006 11.992139 -28.671319 9.729791 17.633449 56.145460 -4.136272 12.607487 -6.532169 0.388000 -4.000200 -11.077100 1.552230 2.684000 -0.470862 11.619452 -11.759325 -29.993907 -10.793588 -18.704431 61.047359 0.626268 -5.701365 -8.773007 -0.368500 3.899100 -10.792900 2.915268 -0.692612 17.665628 1.081317 -0.269207 -2.565200 -2.217671 -0.343169 -2.297958 -0.092037 1.270289 -13.393525 5.338216 1.148387 11.207743 -0.832800 1.047100 8.718700 -2.163329 -13.130831 0.671778 -41.701248 -43.024376 28.461917 45.379187 -35.906081 -27.458679 -0.238507 -4.344120 5.553370 1.167483 13.887779 0.312400 -7.125000 0.000000 0.000000 -25.406900 46.510700 -1.011600 4.961334 13.888144 0.080302 33.467422 48.162614 29.358828 -37.076584 30.254002 -16.971418 -0.282483 1.094343 15.495818 -7.654287 -1.631978 0.326000 7.125000 0.000000 0.000000 15.637900 -32.337500 5.011100 
8.293488 16.573492 -7.538247 -137.418239 -87.447550 132.011175 -1.034182 -2.279150 -0.559403 -5.839483 11.953599 -28.685842 9.735533 17.640244 56.173942 -4.137543 12.615062 -6.583799 0.383800 -3.978600 -11.016300 1.547086 2.684823 -0.471891 11.617885 -11.782865 -30.021223 -10.798310 -18.703541 61.054504 0.618914 -5.683272 -8.755251 -0.369500 3.904500 -10.808100 2.895839 -0.700499 17.676094 1.083887 -0.282144 -2.568306 -2.194103 -0.349906 -2.323829 -0.095631 1.256302 -13.374331 5.344952 1.130421 11.147509 -0.832600 1.036700 8.658500 -2.164992 -13.125870 0.683529 -41.728784 -42.971928 28.477854 45.473157 -35.966910 -27.563934 -0.232125 -4.342494 5.574760 1.157817 13.881455 0.306800 -7.125000 0.000000 0.000000 -25.418200 46.500700 -1.005500 4.960245 13.878081 0.078828 33.481022 48.135546 29.330817 -37.181661 30.329493 -17.068383 -0.294971 1.123669 15.560461 -7.531686 -1.648461 0.324300 7.125000 0.000000 0.000000 15.757600 -32.372000 5.038500 
